Coordinates
version=1
nRows=10
nColumns=22
inDegrees=yes

Units are S.I. units (second, meters, Newtons, ...)
If the header above contains a line with 'inDegrees', this indicates whether rotational values are in degrees (yes) or radians (no).

endheader
time	pelvis_tilt	pelvis_list	pelvis_rotation	pelvis_tx	pelvis_ty	pelvis_tz	hip_flexion_r	hip_adduction_r	hip_rotation_r	knee_angle_r	ankle_angle_r	subtalar_angle_r	hip_flexion_l	hip_adduction_l	hip_rotation_l	knee_angle_l	ankle_angle_l	subtalar_angle_l	lumbar_extension	lumbar_bending	lumbar_rotation
      1.86000000	     -2.80765458	     -3.62381939	    119.92981301	     -0.63601032	      1.04472888	      0.79705017	     -8.77589286	      6.59522904	     22.47782902	    -18.21769379	     17.55704272	    -14.67435823	     23.68729505	     -0.28717771	     14.14167490	     -6.84442365	      7.98701127	     17.95187946	     -2.74512034	     -2.76399968	     -1.82514304
      1.87000000	     -2.79739742	     -3.69185464	    119.05175029	     -0.64120272	      1.04354579	      0.78899045	     -8.97475239	      6.44457771	     22.93993854	    -18.81898321	     17.53114581	    -14.45397430	     23.81299641	     -0.14256178	     13.81874382	     -7.38890486	      8.10779368	     17.93488225	     -2.67940033	     -2.76136805	     -1.73231717
      1.88000000	     -2.77908833	     -3.76419442	    118.15570261	     -0.64638951	      1.04243479	      0.78069879	     -9.13729994	      6.30086794	     23.37939939	    -19.48021904	     17.43728103	    -14.06101097	     23.92949960	     -0.00489115	     13.46182130	     -8.09608173	      8.11338365	     17.72577288	     -2.59047109	     -2.75792718	     -1.65676378
      1.89000000	     -2.77530820	     -3.83712066	    117.26519960	     -0.65159706	      1.04142011	      0.77217148	     -9.28614787	      6.14254755	     23.73796761	    -20.17617104	     17.26100959	    -13.61020692	     24.02905978	      0.15421934	     13.18090123	     -8.96254898	      8.01103053	     17.24281420	     -2.49289436	     -2.78424539	     -1.56978053
      1.90000000	     -2.79417157	     -3.91721375	    116.39140070	     -0.65684708	      1.04053388	      0.76342880	     -9.40329733	      5.96303541	     24.00857997	    -20.93576463	     16.98936519	    -13.11181347	     24.08714538	      0.34205537	     13.05092133	     -9.90058818	      7.75019938	     16.57163531	     -2.38164829	     -2.84280386	     -1.52788409
      1.91000000	     -2.83978790	     -4.00448627	    115.51563263	     -0.66204757	      1.03981232	      0.75449970	     -9.46892953	      5.76240912	     24.20628359	    -21.78889750	     16.64837180	    -12.55704134	     24.11078051	      0.54882433	     13.07788269	    -10.88956149	      7.28549056	     15.85480550	     -2.26642785	     -2.94636711	     -1.48188859
      1.92000000	     -2.92913216	     -4.10932081	    114.67159337	     -0.66729104	      1.03931400	      0.74539713	     -9.48426381	      5.51811049	     24.30778144	    -22.72006342	     16.15286706	    -11.87309398	     24.10135987	      0.80943420	     13.30785842	    -11.89610789	      6.65733329	     15.12326398	     -2.13606441	     -3.10884712	     -1.47196354
      1.93000000	     -3.06944391	     -4.21409792	    113.83906881	     -0.67250766	      1.03907375	      0.73616272	     -9.43277200	      5.23801972	     24.32065194	    -23.78654857	     15.54192829	    -11.03814681	     24.05575694	      1.10992897	     13.66263524	    -12.91990773	      5.96183609	     14.45317407	     -2.01936640	     -3.32718848	     -1.47500585
      1.94000000	     -3.26969679	     -4.30475511	    113.02227057	     -0.67770435	      1.03913319	      0.72680772	     -9.32076775	      4.92041912	     24.24624947	    -24.99719144	     14.78051039	    -10.01732936	     23.96025673	      1.45186115	     14.08918716	    -13.94826883	      5.28815580	     13.85763795	     -1.93329819	     -3.60167637	     -1.48313749
      1.95000000	     -3.49838689	     -4.34758297	    112.23000191	     -0.68286344	      1.03951647	      0.71731589	     -9.17659386	      4.61105970	     24.12770652	    -26.32272025	     13.76312215	     -8.71941414	     23.81594619	      1.79167403	     14.48185804	    -15.00876736	      4.76914303	     13.27690033	     -1.89621901	     -3.88515220	     -1.51802811
